<svg xmlns="http://www.w3.org/2000/svg" width="1051" height="296" viewBox="0 0 1051 296" version="1.1">
	<path d="M 8.250 5.674 C 6.401 6.964, 6 8.181, 6 12.500 C 6 19.046, 7.015 19.948, 15.572 21.009 C 23.296 21.967, 27.004 24.732, 28.857 30.916 C 29.676 33.652, 30 59.353, 30 121.744 C 30 217.805, 30.289 213.389, 23.667 218.440 C 21.144 220.365, 19.094 221.008, 15.406 221.033 C 8.460 221.080, 6 223.344, 6 229.688 C 6 238.488, 2.860 238.005, 59.761 237.968 C 116.424 237.932, 113.500 238.362, 113.500 230.062 C 113.500 223.345, 111.257 221, 104.831 221 C 97.445 221, 91.728 216.934, 90.683 210.936 C 89.786 205.794, 89.644 35.056, 90.533 31.001 C 91.487 26.650, 96.343 22.221, 101 21.455 C 109.853 20, 111.508 19.369, 112.771 16.965 C 114.415 13.836, 113.511 7.111, 111.211 5.364 C 109.860 4.337, 99.099 4.068, 60 4.084 C 16.670 4.102, 10.220 4.301, 8.250 5.674 M 925 27.699 C 922.363 28.651, 920.045 32.400, 920.022 35.750 C 920.010 37.538, 919.550 39, 919 39 C 918.450 39, 918.001 39.563, 918.003 40.250 C 918.006 41.473, 913.682 52.799, 911.900 56.236 C 911.405 57.191, 911 58.654, 911 59.486 C 911 60.319, 910.550 61, 910 61 C 909.450 61, 909.002 61.563, 909.004 62.250 C 909.008 63.277, 905.001 72.154, 900.884 80.236 C 900.398 81.191, 900 82.654, 900 83.486 C 900 84.319, 899.550 85, 899 85 C 898.450 85, 898 85.532, 898 86.181 C 898 86.831, 895.940 91.669, 893.423 96.931 C 890.905 102.194, 888.467 107.400, 888.003 108.500 C 887.540 109.600, 885.149 114.775, 882.690 120 C 880.230 125.225, 877.081 131.975, 875.690 135 C 874.300 138.025, 871.776 143.392, 870.081 146.927 C 868.387 150.462, 867 153.950, 867 154.677 C 867 155.405, 866.550 156, 866 156 C 865.450 156, 865 156.604, 865 157.343 C 865 158.454, 860.638 168.098, 856.908 175.236 C 856.408 176.191, 856 177.654, 856 178.486 C 856 179.319, 855.550 180, 855 180 C 854.450 180, 854.003 180.563, 854.007 181.250 C 854.011 181.938, 851.926 186.775, 849.375 192 C 846.824 197.225, 844.346 202.512, 843.868 203.750 C 839.648 214.685, 832.230 221, 823.604 221 C 817.516 221, 814 223.906, 814 228.938 C 814 231.260, 814.803 233.752, 816.073 235.365 C 818.145 238, 818.145 238, 852.118 238 C 886.091 238, 886.091 238, 888.667 235.424 C 890.832 233.259, 891.158 232.213, 890.709 228.867 C 890.029 223.795, 886.921 221, 881.962 221 C 879.177 221, 877.872 220.429, 876.818 218.750 C 875.191 216.157, 875.683 214.342, 880.799 204.073 C 882.559 200.538, 884 196.825, 884 195.823 C 884 194.820, 884.450 194, 885 194 C 885.550 194, 886 193.190, 886 192.200 C 886 188.195, 887.378 188, 915.618 188 C 930.588 188, 943.548 188.273, 944.418 188.607 C 945.288 188.941, 946 189.847, 946 190.621 C 946 191.394, 946.404 192.809, 946.898 193.764 C 950.477 200.681, 953 206.399, 953 207.592 C 953 208.367, 953.450 209, 954 209 C 954.550 209, 955 210.035, 955 211.300 C 955 212.565, 955.531 214.131, 956.180 214.780 C 957.086 215.686, 957.047 216.544, 956.011 218.480 C 954.901 220.553, 953.925 221, 950.505 221 C 944.996 221, 942 224.044, 942 229.640 C 942 232.540, 942.641 234.254, 944.314 235.826 C 946.625 237.997, 946.703 238, 994.564 237.968 C 1033.327 237.942, 1042.842 237.677, 1044.288 236.580 C 1048.143 233.656, 1048.156 225.352, 1044.311 222.437 C 1043.315 221.681, 1040.601 221.049, 1038.280 221.032 C 1033.912 220.999, 1027.711 218.165, 1025.020 214.972 C 1020.606 209.735, 1020 208.909, 1020 208.138 C 1020 207.677, 1017.982 203.294, 1015.515 198.400 C 1013.048 193.505, 1011.023 188.938, 1011.015 188.250 C 1011.007 187.563, 1010.550 187, 1010 187 C 1009.450 187, 1009 186.392, 1009 185.650 C 1009 184.907, 1006.982 180.294, 1004.515 175.400 C 1002.048 170.505, 1000.023 165.938, 1000.015 165.250 C 1000.007 164.563, 999.550 164, 999 164 C 998.450 164, 998 163.436, 998 162.746 C 998 162.056, 996.162 157.668, 993.915 152.996 C 990.216 145.302, 986.728 137.815, 983.668 131 C 983.051 129.625, 981.523 126.821, 980.273 124.770 C 979.023 122.718, 978 120.356, 978 119.520 C 978 118.684, 977.550 118, 977 118 C 976.450 118, 976 117.319, 976 116.486 C 976 115.654, 975.593 114.191, 975.096 113.236 C 974.598 112.281, 971.730 106.325, 968.721 100 C 965.712 93.675, 961.169 84.225, 958.625 79 C 956.081 73.775, 954 68.938, 954 68.250 C 954 67.563, 953.550 67, 953 67 C 952.450 67, 952 66.393, 952 65.650 C 952 64.908, 949.975 60.365, 947.500 55.555 C 945.025 50.744, 943 46.176, 943 45.404 C 943 44.632, 942.550 44, 942 44 C 941.450 44, 941 43.413, 941 42.696 C 941 40.556, 935.779 30.635, 933.660 28.750 C 931.748 27.049, 928.047 26.599, 925 27.699 M 694 32.157 C 680.989 34.886, 672.919 35.243, 616 35.607 C 582.725 35.820, 554.487 36.229, 553.250 36.516 C 552.013 36.803, 551 37.711, 551 38.533 C 551 39.355, 550.442 40.921, 549.759 42.014 C 548.772 43.595, 548.772 44.405, 549.759 45.986 C 550.442 47.079, 551 48.564, 551 49.286 C 551 50.987, 556.615 53, 561.363 53 C 565.207 53, 567.816 54.744, 569.864 58.684 C 570.683 60.258, 571 82.003, 571 136.484 C 571 218.447, 571.180 215.686, 565.586 219.352 C 562.775 221.194, 551.536 221.677, 550.500 220 C 550.160 219.450, 549.239 219, 548.452 219 C 545.648 219, 539.838 213.360, 532.483 203.501 C 530.842 201.301, 528.712 198.629, 527.750 197.562 C 526.788 196.496, 526 195.070, 526 194.395 C 526 193.719, 525.633 193.017, 525.184 192.833 C 524.378 192.504, 515 178.365, 515 177.479 C 515 176.875, 505.906 162.646, 505.107 162 C 504.767 161.725, 503.275 159.871, 501.793 157.880 C 500.310 155.889, 497.290 152.548, 495.081 150.455 C 491.066 146.650, 491.066 146.650, 495.187 144.575 C 503.315 140.482, 517 125.359, 517 120.470 C 517 119.661, 517.357 119, 517.793 119 C 518.229 119, 519.329 116.637, 520.238 113.750 C 524.364 100.635, 524.942 92.974, 522.632 82 C 521.272 75.537, 517.320 65.803, 515.797 65.167 C 515.359 64.983, 515 64.150, 515 63.314 C 515 60.675, 501.713 48.675, 495.425 45.635 C 492.166 44.060, 488.719 42.372, 487.764 41.885 C 486.809 41.398, 485.340 41, 484.500 41 C 483.660 41, 482.191 40.604, 481.236 40.119 C 480.281 39.634, 476.501 38.509, 472.836 37.619 C 467.081 36.221, 458.144 36, 407.308 36 C 349.570 36, 348.412 36.038, 346.722 38.011 C 343.499 41.776, 345.066 51, 348.929 51 C 349.518 51, 350 51.450, 350 52 C 350 52.550, 352.405 53, 355.345 53 C 359.509 53, 361.111 53.465, 362.595 55.105 C 364.435 57.138, 364.500 59.932, 364.500 136.524 C 364.500 215.839, 364.500 215.839, 362.076 218.419 C 360.078 220.546, 358.745 221, 354.500 221 C 350.408 221, 348.901 221.476, 347.174 223.314 C 344.124 226.561, 344.195 232.895, 347.314 235.826 C 349.621 237.992, 349.789 238, 395.140 238 C 440.651 238, 440.651 238, 442.826 235.686 C 444.331 234.084, 445 232.105, 445 229.258 C 445 224.033, 441.621 221, 435.799 221 C 431.861 221, 428.648 219.791, 426.271 217.413 C 425.291 216.434, 425 208.021, 425 180.665 C 425 145.187, 425 145.187, 427.250 145.727 C 430.418 146.488, 435.852 151.855, 437.650 156 C 438.485 157.925, 439.580 160.281, 440.084 161.236 C 440.588 162.191, 441 163.652, 441 164.481 C 441 166.229, 455.880 195.618, 458.941 199.917 C 460.073 201.508, 461 203.302, 461 203.904 C 461 204.507, 461.340 205, 461.756 205 C 462.172 205, 463.074 206.238, 463.760 207.750 C 464.980 210.437, 475.457 221.918, 479.594 225.101 C 481.383 226.477, 488.420 230.351, 494.236 233.161 C 495.191 233.622, 497.014 234, 498.286 234 C 499.559 234, 501.028 234.410, 501.550 234.912 C 503.599 236.879, 517.855 237.236, 609.770 237.621 C 695.363 237.979, 705.285 237.859, 707.452 236.439 C 709.813 234.893, 710.527 232.839, 713.167 220 C 715.663 207.857, 716.157 205.167, 716.656 201 C 716.952 198.525, 717.600 196.073, 718.097 195.550 C 718.594 195.028, 719 192.692, 719 190.359 C 719 188.026, 719.391 185.876, 719.869 185.581 C 720.346 185.286, 721.043 183.122, 721.416 180.772 C 721.790 178.422, 722.330 175.559, 722.616 174.408 C 723.345 171.481, 718.586 166, 715.315 166 C 712.223 166, 707 168.970, 707 170.729 C 707 171.443, 706.605 172.809, 706.121 173.764 C 705.638 174.719, 703.951 178.425, 702.371 182 C 700.792 185.575, 699.163 188.650, 698.750 188.833 C 698.337 189.017, 698 189.776, 698 190.521 C 698 192.767, 685.787 204.549, 681.500 206.440 C 670.488 211.296, 666.057 212, 646.486 212 C 629 212, 629 212, 629 180.952 C 629 149.905, 629 149.905, 644.750 150.318 C 653.413 150.545, 661.934 151.063, 663.686 151.469 C 667.713 152.403, 674 159.064, 674 162.397 C 674 163.764, 674.450 165.160, 675 165.500 C 675.550 165.840, 676 168.061, 676 170.437 C 676 175.822, 677.839 177.500, 683.742 177.500 C 687.219 177.500, 688.597 176.981, 690.124 175.095 C 691.985 172.797, 692.058 171.108, 691.786 136.888 C 691.511 102.430, 691.425 101.028, 689.500 99.574 C 686.691 97.453, 679.701 97.557, 677.763 99.750 C 676.913 100.713, 675.979 103.300, 675.689 105.500 C 674.381 115.412, 672.074 119.819, 666.822 122.439 C 664.347 123.673, 660.063 124, 646.346 124 C 629 124, 629 124, 629 93 C 629 62, 629 62, 651.941 62 C 666.156 62, 675.117 62.380, 675.500 63 C 675.840 63.550, 676.919 64, 677.898 64 C 680.290 64, 686.199 70.641, 687.750 75.071 C 688.438 77.035, 689 81.136, 689 84.185 C 689 88.840, 689.422 90.149, 691.636 92.364 C 694.861 95.589, 699.071 95.798, 703.096 92.932 C 706 90.864, 706 90.864, 705.968 63.182 C 705.944 42.275, 705.623 35.088, 704.656 33.816 C 702.942 31.561, 699.442 31.016, 694 32.157 M 209 32.981 C 208.175 33.524, 205.732 33.976, 203.571 33.985 C 201.410 33.993, 198.035 34.507, 196.071 35.127 C 188.096 37.642, 183.396 39.196, 181.500 39.944 C 175.696 42.232, 174.023 42.972, 168.672 45.618 C 165.467 47.203, 162.092 49.187, 161.172 50.027 C 160.252 50.867, 157.925 52.621, 156 53.925 C 151.678 56.853, 138.034 71.070, 138.014 72.667 C 138.006 73.308, 137.597 73.983, 137.106 74.167 C 136.017 74.572, 133.011 79.623, 129.468 87 C 128.015 90.025, 126.415 93.281, 125.913 94.236 C 125.411 95.191, 125 97.077, 125 98.427 C 125 99.777, 124.598 101.131, 124.106 101.435 C 123.614 101.739, 122.985 103.678, 122.708 105.744 C 122.431 107.810, 121.714 111.300, 121.115 113.500 C 118.334 123.708, 118.994 159.394, 122.020 162.420 C 122.559 162.959, 123 165.083, 123 167.141 C 123 169.199, 123.450 171.160, 124 171.500 C 124.550 171.840, 125 173.223, 125 174.573 C 125 175.923, 125.413 177.809, 125.918 178.764 C 126.423 179.719, 127.760 182.525, 128.889 185 C 130.904 189.420, 134.013 195.015, 135.002 196 C 135.277 196.275, 136.177 197.837, 137.002 199.471 C 140.431 206.272, 163.724 227, 167.936 227 C 168.430 227, 168.983 227.337, 169.167 227.750 C 169.644 228.824, 180.585 234, 182.378 234 C 183.205 234, 184.160 234.450, 184.500 235 C 184.840 235.550, 186.415 236, 188 236 C 189.585 236, 191.160 236.450, 191.500 237 C 191.840 237.550, 193.816 238, 195.892 238 C 197.968 238, 200.003 238.336, 200.414 238.747 C 201.821 240.154, 217.496 241.915, 229 241.959 C 241.151 242.005, 256.326 240.484, 259.236 238.928 C 260.191 238.418, 262.527 238, 264.427 238 C 266.327 238, 268.160 237.550, 268.500 237 C 268.840 236.450, 270.072 236, 271.238 236 C 273.490 236, 279.347 234.337, 282.236 232.877 C 283.191 232.395, 284.405 232, 284.933 232 C 285.994 232, 301.203 224.894, 302 224.025 C 302.275 223.726, 304.218 222.585, 306.317 221.490 C 308.417 220.396, 310.892 218.813, 311.817 217.973 C 312.743 217.133, 315.075 215.361, 317 214.035 C 321.728 210.779, 329.012 203.100, 330.108 200.215 C 330.599 198.925, 331 187.711, 331 175.295 C 331 149.472, 330.791 150.087, 339.595 150.032 C 345.897 149.992, 348 148.044, 348 142.244 C 348 139.007, 347.446 137.709, 345.365 136.073 C 342.796 134.052, 341.700 134, 301.299 134 C 253.202 134, 254.048 133.846, 254.015 142.595 C 253.995 148.019, 256.229 150, 262.364 150 C 265.012 150, 268.148 150.706, 269.535 151.615 C 272 153.230, 272 153.230, 272 174.115 C 272 187.372, 271.635 195, 271 195 C 270.450 195, 270 195.823, 270 196.830 C 270 197.836, 267.637 201.059, 264.750 203.991 C 259.198 209.629, 249.220 214.996, 244.272 215.006 C 242.747 215.009, 239.857 215.468, 237.848 216.025 C 229.627 218.309, 210.160 212.351, 202.500 205.206 C 185.797 189.628, 179.211 165.251, 181.102 126 C 181.675 114.109, 182.850 107.666, 186.490 96.471 C 188.056 91.653, 191.937 83.017, 192.992 82 C 193.278 81.725, 194.837 79.700, 196.458 77.500 C 199.623 73.203, 205.924 67, 207.124 67 C 207.527 67, 208.452 66.438, 209.179 65.750 C 209.905 65.063, 211.850 63.885, 213.500 63.133 C 215.150 62.382, 217.281 61.369, 218.236 60.883 C 219.191 60.397, 221.077 60, 222.427 60 C 223.777 60, 225.160 59.550, 225.500 59 C 225.869 58.403, 232.324 58, 241.500 58 C 250.676 58, 257.131 58.403, 257.500 59 C 257.840 59.550, 259.415 60, 261 60 C 262.585 60, 264.160 60.450, 264.500 61 C 264.840 61.550, 266.216 62, 267.559 62 C 268.902 62, 270 62.450, 270 63 C 270 63.550, 270.900 64, 272 64 C 273.100 64, 274 64.420, 274 64.933 C 274 65.446, 274.841 66.132, 275.868 66.458 C 278.181 67.192, 285.647 74.304, 289.034 79 C 292.484 83.784, 295.715 90.668, 299.478 101.252 C 301.426 106.732, 304.111 109, 308.651 109 C 314.980 109, 315 108.899, 315 77.339 C 315 48.987, 314.987 48.810, 312.750 46.944 C 311.512 45.911, 309.931 45.052, 309.236 45.033 C 308.003 45.001, 306.831 44.517, 302.264 42.156 C 301.034 41.520, 298.971 41, 297.680 41 C 296.389 41, 295.012 40.678, 294.618 40.285 C 293.008 38.675, 279.229 35.652, 265 33.788 C 254.301 32.386, 210.852 31.760, 209 32.981 M 728.306 36.644 C 726.105 37.539, 724.739 43.679, 725.935 47.304 C 727.182 51.080, 731.128 53, 737.647 53 C 740.659 53, 742.252 53.640, 744.076 55.580 C 746.500 58.161, 746.500 58.161, 746.767 143.082 C 746.942 198.871, 746.671 230.490, 745.977 235.252 C 744.278 246.911, 743.830 248.987, 742.890 249.568 C 742.400 249.871, 742 251.216, 742 252.559 C 742 253.902, 741.550 255, 741 255 C 740.450 255, 740 255.900, 740 257 C 740 258.100, 739.580 259, 739.067 259 C 738.554 259, 737.881 259.800, 737.570 260.778 C 736.542 264.018, 727.237 272.842, 722.639 274.936 C 717.524 277.267, 714.994 280.265, 715.014 283.973 C 715.038 288.398, 716.032 290.467, 718.751 291.750 C 721.932 293.252, 740.600 293.457, 741.500 292 C 741.840 291.450, 744.090 291, 746.500 291 C 748.910 291, 751.160 290.550, 751.500 290 C 751.840 289.450, 753.223 289, 754.573 289 C 755.923 289, 757.809 288.590, 758.764 288.089 C 759.719 287.588, 763.087 285.939, 766.250 284.425 C 769.413 282.912, 772 281.406, 772 281.081 C 772 280.755, 773.462 279.856, 775.250 279.084 C 779.101 277.420, 792.856 263.775, 794.998 259.494 C 795.823 257.847, 796.723 256.275, 796.998 256 C 797.672 255.329, 800.811 248.648, 803.342 242.500 C 805.352 237.617, 805.413 235.407, 805.950 147.831 C 806.500 58.161, 806.500 58.161, 809.500 55.582 C 811.531 53.835, 813.672 53.002, 816.128 53.001 C 821.294 52.999, 826.627 50.525, 827.359 47.790 C 828.395 43.922, 828.072 40.548, 826.443 38.223 C 824.887 36, 824.887 36, 777.193 36.079 C 750.962 36.122, 728.963 36.376, 728.306 36.644 M 425 95.500 C 425 129, 425 129, 433.812 129 C 446.588 129, 453.452 125.035, 457.648 115.230 C 458.526 113.178, 459.639 110.719, 460.122 109.764 C 460.605 108.809, 461 106.536, 461 104.714 C 461 102.891, 461.492 100.908, 462.094 100.306 C 463.780 98.620, 462.166 83.378, 459.733 78 C 456.611 71.100, 448.672 64, 444.079 64 C 443 64, 441.840 63.550, 441.500 63 C 441.160 62.450, 437.309 62, 432.941 62 C 425 62, 425 62, 425 95.500 M 915.106 124.221 C 914.616 125.509, 913.222 128.799, 912.008 131.532 C 910.794 134.264, 909.441 137.400, 909.002 138.500 C 908.563 139.600, 907.530 142.075, 906.706 144 C 905.882 145.925, 904.188 149.975, 902.941 153 C 901.693 156.025, 900.297 158.928, 899.837 159.450 C 899.376 159.973, 899 160.760, 899 161.200 C 899 161.640, 906.650 162, 916 162 C 934.055 162, 934.527 161.860, 932.082 157.236 C 930.967 155.129, 924.961 141.419, 922.998 136.500 C 922.559 135.400, 921.254 132.367, 920.100 129.761 C 918.945 127.154, 918 124.593, 918 124.070 C 918 121.933, 915.935 122.041, 915.106 124.221" stroke="none" fill="#fbfbfb" fill-rule="evenodd" />
</svg>
