<?xml version="1.0" standalone="yes"?>
<svg xmlns="http://www.w3.org/2000/svg" width="1280" height="1065">
<path style="fill:#010101; stroke:none;" d="M0 0L0 1065L1280 1065L1280 0L0 0z"/>
<path style="fill:#68282f; stroke:none;" d="M415 35L415 36L422 36L415 35z"/>
<path style="fill:#3299dc; stroke:none;" d="M66 288C77.2391 280.09 86.6444 269.319 97 260.286C120.418 239.857 146.684 221.451 177 213.152C219.326 201.566 264.153 211.661 304 227.6C347.233 244.894 385.702 270.613 423 298.116C457.98 323.909 492.241 351.241 523 382C558.539 417.539 591.728 456.853 617.796 500C623.964 510.208 628.982 521.112 635.671 531C638.191 534.724 641.713 540.306 647 539.238C654.287 537.767 660.465 527.513 664.626 522C677.508 504.932 688.405 486.664 696.85 467C732.318 384.411 729.226 286.945 693.576 205C681.231 176.625 661.767 151.629 642.08 128C631.639 115.468 621.168 102.277 608 92.4784C509.116 18.8943 354.381 16.8218 250 79.449C223.972 95.0654 200.199 115.245 182.428 140C172.612 153.674 166.806 171.501 155.815 183.999C145.521 195.705 129.182 200.977 117 210.666C93.9088 229.031 72.8816 258.961 66 288z"/>
<path style="fill:#68282f; stroke:none;" d="M442 36L442 37L445 37L442 36z"/>
<path style="fill:#cb0133; stroke:none;" d="M927 36.4244C905.356 39.266 883.354 39.8163 862 44.8843C817.083 55.5444 771.148 79.9884 736 109.59C723.291 120.294 711.825 132.01 701.449 145C697.698 149.696 691.845 155.728 691.258 162C690.612 168.894 697.304 172.068 703 173.331C718.261 176.716 733.784 178.323 749 182.127C794.322 193.454 852.231 216.242 859.714 269C868.841 333.339 844.339 392.815 816.247 449C801.336 478.822 785.914 509.049 766.116 536C752.78 554.152 738.537 571.711 722.961 588C712.575 598.861 698.065 610.928 693.789 626C691.599 633.716 695.392 639.948 697.795 647C703.254 663.025 711.073 678.209 717.189 694C736.156 742.966 748.123 791.94 754.286 844C756.191 860.096 757 876.789 757 893C757 898.296 756.099 907.186 764.001 906.664C769.554 906.296 774.908 900.286 779 896.999C790.065 888.112 801.103 879.173 812 870.08C854.802 834.368 897.581 797.419 937 758C1007.28 687.724 1073.39 615.922 1128.67 533C1165.97 477.051 1197.44 418.25 1211.49 352C1223.43 295.686 1223.02 230.982 1198.69 178C1163.49 101.319 1085.83 57.5039 1006 42.1968C980.833 37.3708 952.612 33.0619 927 36.4244z"/>
<path style="fill:#68282f; stroke:none;" d="M453 37L453 38L457 38L453 37M973 37L973 38L976 38L973 37M982 38L982 39L985 39L982 38M470.667 39.3334L471.333 39.6666L470.667 39.3334M989 39L989 40L992 40L989 39M477.667 40.3334L478.333 40.6666L477.667 40.3334M996.667 40.3334L997.333 40.6666L996.667 40.3334M488.667 42.3333L489.333 42.6667L488.667 42.3333M1016.67 44.3333L1017.33 44.6667L1016.67 44.3333z"/>
<path style="fill:#010101; stroke:none;" d="M1114 136C1117.38 143.592 1123.82 149.885 1128.19 157C1137.61 172.34 1145.86 188.273 1152.55 205C1169.73 247.96 1168 292.596 1168 338L1169 338C1170.68 316.917 1176.46 296.23 1177.91 275C1180.25 240.868 1169.94 204.029 1152.19 175C1143.31 160.479 1131.34 141.102 1114 136z"/>
<path style="fill:#68282f; stroke:none;" d="M709.667 174.333L710.333 174.667L709.667 174.333M733.667 178.333L734.333 178.667L733.667 178.333M1214.33 228.667L1214.67 229.333L1214.33 228.667M1176.33 244.667L1176.67 245.333L1176.33 244.667M1217 248L1217 252L1218 252L1217 248M1218 263L1218 290L1219 290L1218 263M716.333 280.667L716.667 281.333L716.333 280.667M717 286L717 289L718 289L717 286M1217 310L1217 313L1218 313L1217 310M1216 318L1216 322L1217 322L1216 318M1171.33 322.667L1171.67 323.333L1171.33 322.667M721 325L721 329L722 329L721 325M1215 327L1215 330L1216 330L1215 327M858 332L858 335L859 335L858 332M1214.33 334.667L1214.67 335.333L1214.33 334.667M1213.33 340.667L1213.67 341.333L1213.33 340.667z"/>
<path style="fill:#08ad9c; stroke:none;" d="M80 836C88.8352 839.707 103.415 837 113 837C139.667 837 165.641 837.64 192 833.247C306.617 814.144 404.19 755.621 495 685.651C522.831 664.207 549.846 641.552 575 617.015C580.424 611.724 598.536 600.229 598.169 592C597.822 584.224 585.209 572.72 580.411 567C561.898 544.935 541.296 525.241 520 505.925C475.007 465.116 424.504 429.048 372 398.576C337.917 378.795 303.024 360.911 265 350C238.82 342.487 210.139 338.316 183 342.13C174.495 343.326 162.165 344.513 155.059 349.702C146.462 355.979 154.714 367.573 157.305 375C165.278 397.861 172.534 419.879 182.691 442C212.251 506.376 251.065 568.29 296.084 623C311.195 641.364 326.276 660.07 343.004 677C350.129 684.211 364.051 693.642 366.391 704C368.143 711.754 360.88 719.102 355.999 724C342.117 737.933 324.309 748.086 307 757.219C237.52 793.88 158.365 825.88 80 836z"/>
<path style="fill:#68282f; stroke:none;" d="M217 341L217 342L221 342L217 341M234.667 343.333L235.333 343.667L234.667 343.333M1212.33 345.667L1212.67 346.333L1212.33 345.667M721 353L721 358L722 358L721 353M1210.33 355.667L1210.67 356.333L1210.33 355.667M1208.33 364.667L1208.67 365.333L1208.33 364.667M1207.33 368.667L1207.67 369.333L1207.33 368.667M720 369L720 373L721 373L720 369M1204.33 379.667L1204.67 380.333L1204.33 379.667M719.333 380.667L719.667 381.333L719.333 380.667M718 386L718 390L719 390L718 386M1201.33 389.667L1201.67 390.333L1201.33 389.667M716.333 400.667L716.667 401.333L716.333 400.667M715.333 405.667L715.667 406.333L715.333 405.667M714.333 410.667L714.667 411.333L714.333 410.667M713 415L714 416L713 415M710 427L711 428L710 427M702 452L703 453L702 452M696 467L697 468L696 467M680 498L681 499L680 498M665 520L666 521L665 520M656 531L657 532L656 531z"/>
<path style="fill:#3299dc; stroke:none;" d="M649.667 666.333L650.333 666.667L649.667 666.333z"/>
<path style="fill:#f8b76c; stroke:none;" d="M722 942C723.249 957.285 727.783 976.449 735 990C745.477 972.847 741.904 945.039 741.039 926C738.16 862.561 714.581 797.586 689.14 740C680.596 720.661 671.27 701.853 661.752 683C659.134 677.814 654.679 665.071 647 667.954C631.773 673.67 616.766 687.216 603 695.947C572.279 715.432 541.272 734.485 511 754.667C501.238 761.175 491.577 767.799 482 774.576C476.941 778.155 471.238 781.306 470.215 788C467.1 808.372 493.73 828.465 507 839.87C543.99 871.66 584.745 899.662 623 929.997C638.244 942.084 658.531 964.417 678 968.482C695.223 972.077 705.479 945.924 722 942z"/>
<path style="fill:#3299dc; stroke:none;" d="M652 667L653 668L652 667z"/>
<path style="fill:#68282f; stroke:none;" d="M653 668L654 669L653 668z"/>
<path style="fill:#3299dc; stroke:none;" d="M644 669L645 670L644 669M641 671L642 672L641 671z"/>
<path style="fill:#68282f; stroke:none;" d="M657 675L658 676L657 675M627 680L628 681L627 680M624 682L625 683L624 682M663 686L664 687L663 686z"/>
<path style="fill:#3299dc; stroke:none;" d="M664 688L665 689L664 688z"/>
<path style="fill:#68282f; stroke:none;" d="M613 689L614 690L613 689z"/>
<path style="fill:#3299dc; stroke:none;" d="M665 690L666 691L665 690z"/>
<path style="fill:#68282f; stroke:none;" d="M602 696L603 697L602 696M594 701L595 702L594 701z"/>
<path style="fill:#3299dc; stroke:none;" d="M673 706L674 707L673 706z"/>
<path style="fill:#68282f; stroke:none;" d="M583 708L584 709L583 708z"/>
<path style="fill:#3299dc; stroke:none;" d="M674 708L675 709L674 708z"/>
<path style="fill:#68282f; stroke:none;" d="M675 710L676 711L675 710M676 712L677 713L676 712M575 713L576 714L575 713M564 720L565 721L564 720M682 725L683 726L682 725M542 734L543 735L542 734M686 734L687 735L686 734M528 743L529 744L528 743M690 743L691 744L690 743M695 755L696 756L695 755M697 760L698 761L697 760M699 765L700 766L699 765M701 770L702 771L701 770M470 795L471 796L470 795M711 797L712 798L711 797M471 798L472 799L471 798z"/>
<path style="fill:#3299dc; stroke:none;" d="M730.333 860.667L730.667 861.333L730.333 860.667M733.333 873.667L733.667 874.333L733.333 873.667z"/>
<path style="fill:#68282f; stroke:none;" d="M756 878L756 902L757 902L756 878z"/>
<path style="fill:#3299dc; stroke:none;" d="M736.333 888.667L736.667 889.333L736.333 888.667M737.333 894.667L737.667 895.333L737.333 894.667z"/>
<path style="fill:#68282f; stroke:none;" d="M738.333 900.667L738.667 901.333L738.333 900.667M739 907L739 910L740 910L739 907z"/>
<path style="fill:#3299dc; stroke:none;" d="M740.333 916.667L740.667 917.333L740.333 916.667M741 927L741 931L742 931L741 927z"/>
<path style="fill:#68282f; stroke:none;" d="M648 949L649 950L648 949M706 949L707 950L706 949M723.333 950.667L723.667 951.333L723.333 950.667M701 954L702 955L701 954M724 955L725 956L724 955M741 956L741 960L742 960L741 956M725.333 959.667L725.667 960.333L725.333 959.667M728.333 971.667L728.667 972.333L728.333 971.667M739.333 973.667L739.667 974.333L739.333 973.667M729 975L730 976L729 975M738 979L739 980L738 979M737 983L738 984L737 983M732 984L733 985L732 984z"/>
</svg>
